<svg width="18" height="21" viewBox="0 0 18 21" fill="none" xmlns="http://www.w3.org/2000/svg">
<path d="M9.00012 2.84233L4.46263 7.37983C3.5653 8.27725 2.95424 9.42059 2.70671 10.6653C2.45917 11.91 2.58628 13.2001 3.07196 14.3726C3.55764 15.545 4.38008 16.5471 5.43528 17.2522C6.49049 17.9572 7.73106 18.3335 9.00012 18.3335C10.2692 18.3335 11.5098 17.9572 12.565 17.2522C13.6202 16.5471 14.4426 15.545 14.9283 14.3726C15.414 13.2001 15.5411 11.91 15.2935 10.6653C15.046 9.42059 14.4349 8.27725 13.5376 7.37983L9.00012 2.84233ZM9.00012 0.25L14.8338 6.08367C15.9876 7.23746 16.7733 8.70747 17.0916 10.3078C17.4099 11.9081 17.2465 13.5669 16.6221 15.0744C15.9977 16.5819 14.9403 17.8704 13.5836 18.7769C12.2269 19.6834 10.6318 20.1673 9.00012 20.1673C7.36843 20.1673 5.77338 19.6834 4.41668 18.7769C3.05998 17.8704 2.00256 16.5819 1.37813 15.0744C0.753703 13.5669 0.59032 11.9081 0.90864 10.3078C1.22696 8.70747 2.01269 7.23746 3.16646 6.08367L9.00012 0.25Z" fill="white"/>
</svg>
