<svg width="19" height="17" viewBox="0 0 19 17" fill="none" xmlns="http://www.w3.org/2000/svg">
<path d="M15.0646 8.31581C15.2274 8.38467 15.2274 8.61533 15.0646 8.68419L3.00205 13.7876C2.83055 13.8602 2.66168 13.6796 2.74556 13.5133L4.73684 9.56667L4.8265 9.38497C5.10176 8.8271 5.10176 8.1729 4.8265 7.61503L4.73684 7.43333L2.74556 3.48669C2.66168 3.32044 2.83055 3.13985 3.00205 3.2124L15.0646 8.31581ZM17.7776 9.42345C18.5994 9.08201 18.5994 7.91799 17.7776 7.57655L1.23756 0.703689C0.941259 0.580567 0.59989 0.649446 0.37451 0.87783C0.148304 1.10705 0.0843849 1.45087 0.213099 1.74608L2.80937 7.70065C3.03162 8.21038 3.03162 8.78962 2.80937 9.29935L0.213099 15.2539C0.0843868 15.5491 0.148304 15.8929 0.374512 16.1222C0.59989 16.3506 0.941259 16.4194 1.23756 16.2963L17.7776 9.42345Z" fill="white"/>
</svg>
